<svg viewBox="0 0 300 150" xmlns="http://www.w3.org/2000/svg" role="img">
  <title>PlayStation controller button layout</title>
  <g fill="none" stroke="#c7c7d6" stroke-width="2.5" stroke-linejoin="round">
    <rect x="20" y="42" width="260" height="58" rx="26"/>
    <rect x="24" y="24" width="55" height="12" rx="4"/>
    <rect x="221" y="24" width="55" height="12" rx="4"/>
    <rect x="24" y="9" width="55" height="12" rx="4"/>
    <rect x="221" y="9" width="55" height="12" rx="4"/>
    <rect x="45" y="63" width="40" height="16"/>
    <rect x="57" y="51" width="16" height="40"/>
    <rect x="130" y="97" width="22" height="8" rx="4"/>
    <rect x="158" y="97" width="22" height="8" rx="4"/>
  </g>
  <g fill="none" stroke="#c7c7d6" stroke-width="2" stroke-linecap="round" stroke-linejoin="round">
    <polygon points="225,51 232,63 218,63"/>
    <circle cx="245" cy="71" r="8"/>
    <path d="M219 78L231 90M231 78L219 90"/>
    <rect x="199" y="65" width="12" height="12" rx="1.5"/>
  </g>
  <g fill="#c7c7d6" font-family="Inter, system-ui, sans-serif" font-size="8.5" text-anchor="middle">
    <text x="51" y="20">L2</text>
    <text x="248" y="20">R2</text>
    <text x="51" y="35">L1</text>
    <text x="248" y="35">R1</text>
    <text x="65" y="115">D-PAD</text>
    <text x="141" y="118">SELECT</text>
    <text x="169" y="118">START</text>
    <text x="225" y="44" font-size="7">TRIANGLE</text>
    <text x="262" y="74" font-size="7">CIRCLE</text>
    <text x="225" y="103" font-size="7">CROSS</text>
    <text x="188" y="74" font-size="7" text-anchor="end">SQUARE</text>
  </g>
</svg>
