<svg viewBox="0 0 280 140" xmlns="http://www.w3.org/2000/svg" role="img">
  <title>SNES controller button layout</title>
  <g fill="none" stroke="#c7c7d6" stroke-width="2.5" stroke-linejoin="round">
    <rect x="10" y="35" width="260" height="65" rx="26"/>
    <rect x="14" y="15" width="62" height="14" rx="5"/>
    <rect x="204" y="15" width="62" height="14" rx="5"/>
    <rect x="35" y="59" width="40" height="16"/>
    <rect x="47" y="47" width="16" height="40"/>
    <rect x="118" y="93" width="24" height="9" rx="4.5"/>
    <rect x="150" y="93" width="24" height="9" rx="4.5"/>
    <circle cx="190" cy="67" r="10"/>
    <circle cx="210" cy="47" r="10"/>
    <circle cx="210" cy="87" r="10"/>
    <circle cx="230" cy="67" r="10"/>
  </g>
  <g fill="#c7c7d6" font-family="Inter, system-ui, sans-serif" font-size="9" text-anchor="middle">
    <text x="45" y="24">L</text>
    <text x="235" y="24">R</text>
    <text x="55" y="115">D-PAD</text>
    <text x="130" y="115">SELECT</text>
    <text x="162" y="115">START</text>
    <text x="190" y="70">Y</text>
    <text x="210" y="50">X</text>
    <text x="210" y="90">B</text>
    <text x="230" y="70">A</text>
  </g>
</svg>
